<svg width="101" height="57" xmlns="http://www.w3.org/2000/svg" viewBox="0 0 101 57" fill="var(--ifm-color-emphasis-600)"><path d="M72.922 0l.001.03c.238 0 .445.007.586.028.164.02.786.092 1.378.153 3.307.337 7.206 1.531 10.105 3.072 5.409 2.899 9.655 7.328 12.298 12.87 4.716 9.86 3.4 21.403-3.409 29.977-.939 1.184-3.02 3.286-4.194 4.225-3.215 2.562-7.073 4.501-10.921 5.47-2.552.633-4.318.848-6.992.848-2.817 0-4.878-.266-7.532-1-4.889-1.337-10.35-4.634-13.33-8.043l-.755-.868-1.745 1.633c-1.847 1.735-3.47 3.021-5.062 4.012-3.654 2.265-8.114 3.817-11.87 4.123-1.654.143-4.767.143-6.298.01-3.072-.275-6.45-1.296-9.645-2.909-7.001-3.531-12.155-9.767-14.38-17.35C.279 33.29.013 31.064.105 27.706c.102-3.48.47-5.644 1.409-8.39 1.45-4.235 3.694-7.848 6.818-10.951 2.419-2.409 4.695-4.021 7.787-5.511C19.426 1.273 22.804.395 26.805.099c.39-.03.785-.05 1.118-.058L27.922 0h45zm-1.75 6.94h-42.34c-.452.072-1.161.157-2.476.303-5.277.592-9.42 2.593-13.084 6.338-1.91 1.95-2.98 3.43-4.022 5.553-.694 1.418-1.551 3.93-1.776 5.225-.439 2.511-.418 6.043.062 8.35.643 3.143 2.306 6.582 4.398 9.083 3.654 4.378 8.553 7.063 14.106 7.716 1.47.173 4.827.061 6.113-.204 4.154-.847 7.298-2.399 10.431-5.103.96-.837 1.786-1.797 3.174-3.705 2.011-2.766 2.47-3.134 4.042-3.226 1.674-.102 2.654.47 3.868 2.246 1.521 2.235 3.144 4.082 4.756 5.41 3.297 2.694 7.716 4.419 11.942 4.653 2.531.143 4.378-.04 6.736-.653 7.461-1.929 13.37-7.869 15.29-15.391.459-1.827.601-3.317.53-5.869-.061-2.327-.194-3.307-.735-5.113-1.01-3.42-2.643-6.216-5.123-8.788-3.113-3.215-6.471-5.144-10.544-6.042-.643-.143-2.163-.378-3.368-.52a65.192 65.192 0 01-1.98-.263zM28.35 21.331a7.042 7.042 0 110 14.085 7.042 7.042 0 010-14.085zm43.479 0a7.042 7.042 0 110 14.085 7.042 7.042 0 010-14.085z"/></svg>
